<svg aria-hidden="true" style="position: absolute; width: 0; height: 0; overflow: hidden;" version="1.1" xmlns="http://www.w3.org/2000/svg" xmlns:xlink="http://www.w3.org/1999/xlink">
<defs>
<symbol id="icon-facebook" viewBox="0 0 32 32">
      <path  d="M21.329 5.313h2.921V.225C23.746.156 22.013 0 19.994 0c-4.212 0-7.097 2.649-7.097 7.519V12H8.249v5.688h4.648V32h5.699V17.689h4.46l.708-5.688h-5.169V8.082c.001-1.644.444-2.769 2.735-2.769z"/>
    </symbol>
<symbol id="icon-linkedin" viewBox="0 0 32 32">
<path d="M1.087 10.393h6.67v20.561h-6.67zM25.924 10.634c-0.071-0.022-0.138-0.046-0.212-0.067-0.062-0.016-0.154-0.034-0.246-0.049l-0.024-0.003c-0.354-0.071-0.742-0.122-1.197-0.122-3.888 0-6.355 2.836-7.167 3.931v-3.931h-6.67v20.561h6.67v-11.215s5.040-7.039 7.167-1.869v13.084h6.668v-13.875c0-3.107-2.123-5.695-4.988-6.445zM7.612 4.318c0 1.807-1.461 3.271-3.262 3.271s-3.262-1.464-3.262-3.271c0-1.806 1.461-3.271 3.262-3.271s3.262 1.464 3.262 3.271z"></path>
</symbol>
<symbol id="icon-Google_Plus" viewBox="0 0 32 32">
<path d="M11.35 19.181v3.206s3.106-0.006 4.375-0.006c-0.688 2.075-1.75 3.206-4.375 3.206-2.656 0-4.725-2.15-4.725-4.806s2.075-4.806 4.725-4.806c1.406 0 2.313 0.494 3.144 1.181 0.669-0.669 0.613-0.762 2.306-2.363-1.438-1.306-3.35-2.106-5.444-2.106-4.469 0-8.094 3.625-8.094 8.094s3.625 8.094 8.094 8.094c6.681 0 8.312-5.819 7.769-9.694h-7.775zM25.938 19.337v-2.806h-2v2.806h-2.881v2h2.881v2.881h2v-2.881h2.806v-2h-2.806z"></path>
</symbol>
<symbol id="icon-Twitter" viewBox="0 0 32 32">
<path d="M32 5.824c-1.097 0.513-2.37 0.886-3.707 1.053l-0.063 0.006c1.356-0.832 2.397-2.151 2.887-3.723-1.199 0.742-2.597 1.308-4.088 1.617l-0.084 0.014c-1.195-1.308-2.902-2.124-4.791-2.124-3.623 0-6.563 3.014-6.563 6.732 0 0.528 0.056 1.040 0.169 1.533-5.456-0.281-10.293-2.959-13.533-7.036-0.559 0.971-0.889 2.135-0.889 3.375 0 0.004 0 0.009 0 0.013v-0.001c0 2.334 1.159 4.395 2.921 5.603-1.074-0.033-2.089-0.339-2.975-0.84v0.083c0 3.263 2.263 5.984 5.269 6.601-0.55 0.158-1.131 0.237-1.73 0.237-0.423 0-0.836-0.041-1.236-0.119 0.836 2.674 3.259 4.621 6.133 4.673-2.247 1.807-5.079 2.883-8.153 2.883-0.53 0-1.054-0.031-1.567-0.093 2.906 1.907 6.358 3.022 10.064 3.022 12.077 0 18.679-10.257 18.679-19.153 0-0 0-0.001 0-0.001 0-0.306-0.006-0.612-0.018-0.915l0.001 0.044c1.292-0.965 2.38-2.119 3.243-3.433l0.031-0.051z"></path>
</symbol>
<symbol id="icon-play" viewBox="0 0 32 32">
<path d="M10.034 8.217l12.36 7.136c0.498 0.288 0.498 1.007 0 1.295l-12.36 7.136c-0.498 0.288-1.121-0.072-1.121-0.647v-14.272c0-0.575 0.623-0.935 1.121-0.647z"></path>
<path d="M22.394 15.353l-12.36-7.136c-0.066-0.038-0.143-0.067-0.224-0.082l-0.005-0.001 11.949 6.899c0.498 0.288 0.498 1.007 0 1.295l-12.36 7.136c-0.099 0.058-0.218 0.093-0.344 0.096l-0.001 0c0.21 0.3 0.628 0.43 0.985 0.224l12.36-7.136c0.498-0.288 0.498-1.007 0-1.295z"></path>
</symbol>
<symbol id="icon-Shape" viewBox="0 0 32 32">
<path d="M0 4.444v3.2h32v-3.2h-32zM0 14.044v3.2h32v-3.2h-32zM0 26.844v-3.2h32v3.2h-32z"></path>
</symbol>
<symbol id="icon-Logo" viewBox="0 0 32 32">
<path fill="#ffd723" style="fill: var(--color1, #ffd723)" d="M21.324 23.263c-0.756 1.261-2.583 1.261-3.34 0l-10.548-17.578h20.994c1.514 0 2.449 1.652 1.67 2.95l-8.777 14.629z"></path>
<path fill="#fff" style="fill: var(--color2, #fff)" d="M10.547 23.263c0.756 1.261 2.583 1.261 3.34 0l10.548-17.578h-20.995c-1.514 0-2.449 1.652-1.67 2.95l8.777 14.629z"></path>
<path fill="#f6f6f6" style="fill: var(--color3, #f6f6f6)" d="M7.436 5.685h16.998l-8.498 14.165-8.5-14.165z"></path>
</symbol>
<symbol id="icon-webovio" viewBox="0 0 169 32">
<path d="M139.253 7.741c2.201 0 3.956-1.755 3.956-3.922 0-2.133-1.754-3.819-3.887-3.819s-3.853 1.755-3.853 3.888c0 2.167 1.686 3.853 3.784 3.853zM67.314 30.379h-6.262v-26.353h6.365v7.225c0 0 2.821-2.408 6.502-2.408 6.227 0 9.908 5.264 9.908 11.009 0 5.883-3.75 11.044-9.702 11.044-2.787 0-4.851-0.791-6.812-2.718v2.202zM47.394 30.895c-6.502 0-10.975-3.956-10.975-11.044 0-6.399 4.576-11.009 10.803-11.009 6.090 0 10.39 4.025 10.39 11.56l0.001 0.183c0.002 0.107 0.004 0.204 0.007 0.296 0.007 0.258 0.014 0.483-0.008 0.793h-14.862c0.55 2.511 2.546 3.716 4.954 3.716 1.979 0 3.315-1.315 4.384-2.677l0.192-0.248c0 0 3.12 1.799 4.583 2.678l0.405 0.246c-1.858 3.303-5.436 5.505-9.874 5.505zM8.242 30.379l-8.051-21.124h6.743l4.197 11.697 3.853-11.697h5.126l4.060 11.766 4.163-11.766h6.64l-7.947 21.124h-5.539l-3.922-11.353-3.784 11.353h-5.539zM47.153 14.209c1.995 0 3.096 0.963 3.853 2.993h-8.016c0.791-1.961 1.995-2.993 4.163-2.993zM72.474 14.759c2.89 0 4.989 2.271 4.989 4.954 0 2.993-1.583 5.505-4.713 5.505-3.337 0-5.505-2.099-5.505-5.367 0-3.062 2.236-5.092 5.229-5.092zM97.658 31.101c-6.468 0-11.423-5.298-11.423-11.181 0-6.33 5.057-11.078 11.56-11.078 6.399 0 11.387 4.61 11.387 10.975 0 6.434-4.645 11.285-11.525 11.285zM97.761 14.863c2.993 0 5.058 2.133 5.058 4.851 0 3.303-1.927 5.333-5.092 5.333-2.924 0-5.092-2.202-5.092-5.023 0-2.89 2.030-5.161 5.126-5.161zM125.25 30.379h-5.711l-8.841-21.124h7.156l4.61 12.351 4.335-12.351h6.744l-8.292 21.124zM142.487 9.255h-6.399v21.124h6.399v-21.124zM145.927 19.92c0 5.883 4.954 11.181 11.422 11.181 6.881 0 11.526-4.851 11.526-11.285 0-6.365-4.989-10.975-11.388-10.975-6.502 0-11.56 4.748-11.56 11.078zM162.509 19.713c0-2.718-2.064-4.851-5.057-4.851-3.096 0-5.127 2.271-5.127 5.161 0 2.821 2.168 5.023 5.092 5.023 3.165 0 5.092-2.030 5.092-5.333z"></path>
</symbol>
</defs>
</svg>
